<?xml version="1.0" encoding="utf-8"?>
<!-- Generator: Adobe Illustrator 26.3.1, SVG Export Plug-In . SVG Version: 6.00 Build 0)  -->
<svg version="1.1" id="Layer_2" xmlns="http://www.w3.org/2000/svg" xmlns:xlink="http://www.w3.org/1999/xlink" x="0px" y="0px"
	 viewBox="0 0 240 192" style="enable-background:new 0 0 240 192;" xml:space="preserve">
<style type="text/css">
	.st0{fill:#FFFFFF;}
</style>
<path class="st0" d="M155,0H85C38.1,0,0,38.1,0,85c0,29.8,15.4,56,38.6,71.2c0.1,9.9,0.2,18.4,0.2,20.2c0,4.4-0.2,13.5,3.5,15.1
	c1.2,0.5,3.3,0.7,5.5,0c5.8-1.8,10.9-4.9,12.9-6.1c4.7-2.8,15-9,25.7-15.3H155c46.9,0,85-38.1,85-85C240,38.1,201.9,0,155,0z
	 M155,158.1h-48.3H85c-0.6,0-1.1,0-1.7,0c-5.9,3.5-11.8,7-16.8,10c-5,3-9.3,5.5-11.9,7c-1,0.6-1.9,1-2.6,1.4
	c-1.2,0.6-1.2,0.1-1.2-0.8c0-2.2-0.1-7-0.1-12.9c0-4.1-0.1-8.7-0.2-13.4c-4.3-2.3-8.4-5.1-12.1-8.2C22.3,127.8,12,107.6,12,85
	c0-40.3,32.7-73,73-73h70c40.3,0,73,32.8,73,73S195.3,158.1,155,158.1z"/>
<path class="st0" d="M138.6,83.1c-4.8-2.2-8.3-3.2-10.6-5.1l-1.3-1.3c-1.9-2.3-2.9-5.8-5.1-10.6c-0.5-1.1-1-2.3-1.6-2.3
	c-0.6,0-1.1,1.2-1.6,2.3c-2.2,4.8-3.2,8.3-5.1,10.6l-1.3,1.3c-2.3,1.9-5.8,2.9-10.6,5.1c-1.1,0.5-2.3,1-2.3,1.6
	c0,0.6,1.2,1.1,2.3,1.6c4.8,2.2,8.3,3.2,10.6,5.1l1.3,1.3c1.9,2.3,2.9,5.8,5.1,10.6c0.5,1.1,1,2.3,1.6,2.3c0.6,0,1.1-1.2,1.6-2.3
	c2.2-4.8,3.2-8.3,5.1-10.6l1.3-1.3c2.3-1.9,5.8-2.9,10.6-5.1c1.1-0.5,2.3-1,2.3-1.6C140.9,84.1,139.7,83.6,138.6,83.1z"/>
<path class="st0" d="M85.6,83.4c-3.8-1.7-6.5-2.5-8.4-4l-1-1c-1.5-1.8-2.3-4.6-4-8.4c-0.4-0.9-0.8-1.8-1.3-1.8
	c-0.5,0-0.9,0.9-1.3,1.8c-1.7,3.8-2.5,6.5-4,8.4l-1,1c-1.8,1.5-4.6,2.3-8.4,4c-0.9,0.4-1.8,0.8-1.8,1.3c0,0.5,0.9,0.9,1.8,1.3
	c3.8,1.7,6.5,2.5,8.4,4l1,1c1.5,1.8,2.3,4.6,4,8.4c0.4,0.9,0.8,1.8,1.3,1.8c0.5,0,0.9-0.9,1.3-1.8c1.7-3.8,2.5-6.5,4-8.4l1-1
	c1.8-1.5,4.6-2.3,8.4-4c0.9-0.4,1.8-0.8,1.8-1.3C87.4,84.2,86.5,83.8,85.6,83.4z"/>
<path class="st0" d="M183.2,83.4c-3.8-1.7-6.5-2.5-8.4-4l-1-1c-1.5-1.8-2.3-4.6-4-8.4c-0.4-0.9-0.8-1.8-1.3-1.8
	c-0.5,0-0.9,0.9-1.3,1.8c-1.7,3.8-2.5,6.5-4,8.4l-1,1c-1.8,1.5-4.6,2.3-8.4,4c-0.9,0.4-1.8,0.8-1.8,1.3c0,0.5,0.9,0.9,1.8,1.3
	c3.8,1.7,6.5,2.5,8.4,4l1,1c1.5,1.8,2.3,4.6,4,8.4c0.4,0.9,0.8,1.8,1.3,1.8c0.5,0,0.9-0.9,1.3-1.8c1.7-3.8,2.5-6.5,4-8.4l1-1
	c1.8-1.5,4.6-2.3,8.4-4c0.9-0.4,1.8-0.8,1.8-1.3C185,84.2,184.1,83.8,183.2,83.4z"/>
</svg>
