<svg xmlns="http://www.w3.org/2000/svg" viewBox="0 0 1028 192" style="enable-background:new 0 0 1028 192" xml:space="preserve"><linearGradient id="a" gradientUnits="userSpaceOnUse" x1="27.773" y1="-869.277" x2="197.606" y2="-699.444" gradientTransform="matrix(1 0 0 -1 0 -692)"><stop offset="0" style="stop-color:#b87fd5"/><stop offset="1" style="stop-color:#8743f2"/></linearGradient><path style="fill:url(#a)" d="M155 0H85C38.1 0 0 38.1 0 85c0 29.8 15.4 56 38.6 71.2.1 9.9.2 18.4.2 20.2 0 4.4-.2 13.5 3.5 15.1 1.2.5 3.3.7 5.5 0 5.8-1.8 10.9-4.9 12.9-6.1 4.7-2.8 15-9 25.7-15.3H155c46.9 0 85-38.1 85-85 0-47-38.1-85.1-85-85.1zm0 158.1H83.3c-5.9 3.5-11.8 7-16.8 10s-9.3 5.5-11.9 7c-1 .6-1.9 1-2.6 1.4-1.2.6-1.2.1-1.2-.8 0-2.2-.1-7-.1-12.9 0-4.1-.1-8.7-.2-13.4-4.3-2.3-8.4-5.1-12.1-8.2C22.3 127.8 12 107.6 12 85c0-40.3 32.7-73 73-73h70c40.3 0 73 32.8 73 73s-32.7 73.1-73 73.1z"/><linearGradient id="b" gradientUnits="userSpaceOnUse" x1="109.307" y1="-787.393" x2="130.55" y2="-766.15" gradientTransform="matrix(1 0 0 -1 0 -692)"><stop offset="0" style="stop-color:#b87fd5"/><stop offset="1" style="stop-color:#8743f2"/></linearGradient><path style="fill:url(#b)" d="M138.6 83.1c-4.8-2.2-8.3-3.2-10.6-5.1l-1.3-1.3c-1.9-2.3-2.9-5.8-5.1-10.6-.5-1.1-1-2.3-1.6-2.3s-1.1 1.2-1.6 2.3c-2.2 4.8-3.2 8.3-5.1 10.6L112 78c-2.3 1.9-5.8 2.9-10.6 5.1-1.1.5-2.3 1-2.3 1.6s1.2 1.1 2.3 1.6c4.8 2.2 8.3 3.2 10.6 5.1l1.3 1.3c1.9 2.3 2.9 5.8 5.1 10.6.5 1.1 1 2.3 1.6 2.3s1.1-1.2 1.6-2.3c2.2-4.8 3.2-8.3 5.1-10.6l1.3-1.3c2.3-1.9 5.8-2.9 10.6-5.1 1.1-.5 2.3-1 2.3-1.6 0-.6-1.2-1.1-2.3-1.6z"/><linearGradient id="c" gradientUnits="userSpaceOnUse" x1="62.546" y1="-785.053" x2="79.237" y2="-768.364" gradientTransform="matrix(1 0 0 -1 0 -692)"><stop offset="0" style="stop-color:#b87fd5"/><stop offset="1" style="stop-color:#8743f2"/></linearGradient><path style="fill:url(#c)" d="M85.6 83.4c-3.8-1.7-6.5-2.5-8.4-4l-1-1c-1.5-1.8-2.3-4.6-4-8.4-.4-.9-.8-1.8-1.3-1.8s-.9.9-1.3 1.8c-1.7 3.8-2.5 6.5-4 8.4l-1 1c-1.8 1.5-4.6 2.3-8.4 4-.9.4-1.8.8-1.8 1.3s.9.9 1.8 1.3c3.8 1.7 6.5 2.5 8.4 4l1 1c1.5 1.8 2.3 4.6 4 8.4.4.9.8 1.8 1.3 1.8s.9-.9 1.3-1.8c1.7-3.8 2.5-6.5 4-8.4l1-1c1.8-1.5 4.6-2.3 8.4-4 .9-.4 1.8-.8 1.8-1.3s-.9-.9-1.8-1.3z"/><linearGradient id="d" gradientUnits="userSpaceOnUse" x1="160.146" y1="-785.054" x2="176.836" y2="-768.364" gradientTransform="matrix(1 0 0 -1 0 -692)"><stop offset="0" style="stop-color:#b87fd5"/><stop offset="1" style="stop-color:#8743f2"/></linearGradient><path style="fill:url(#d)" d="M183.2 83.4c-3.8-1.7-6.5-2.5-8.4-4l-1-1c-1.5-1.8-2.3-4.6-4-8.4-.4-.9-.8-1.8-1.3-1.8s-.9.9-1.3 1.8c-1.7 3.8-2.5 6.5-4 8.4l-1 1c-1.8 1.5-4.6 2.3-8.4 4-.9.4-1.8.8-1.8 1.3s.9.9 1.8 1.3c3.8 1.7 6.5 2.5 8.4 4l1 1c1.5 1.8 2.3 4.6 4 8.4.4.9.8 1.8 1.3 1.8s.9-.9 1.3-1.8c1.7-3.8 2.5-6.5 4-8.4l1-1c1.8-1.5 4.6-2.3 8.4-4 .9-.4 1.8-.8 1.8-1.3s-.9-.9-1.8-1.3z"/><linearGradient id="e" gradientUnits="userSpaceOnUse" x1="281" y1="105.25" x2="1028" y2="105.25" gradientTransform="matrix(1 0 0 -1 0 194)"><stop offset="0" style="stop-color:#b87fd5"/><stop offset="1" style="stop-color:#8743f2"/></linearGradient><path style="fill:url(#e)" d="m310.8 111.5-9.5 34.6H281l34.4-114.7h23.9L373 146.1h-20.7l-9.4-34.6h-32.1zm4.9-18.1H338L327 51l-11.3 42.4z"/><linearGradient id="f" gradientUnits="userSpaceOnUse" x1="281" y1="90.95" x2="1028" y2="90.95" gradientTransform="matrix(1 0 0 -1 0 194)"><stop offset="0" style="stop-color:#b87fd5"/><stop offset="1" style="stop-color:#8743f2"/></linearGradient><path style="fill:url(#f)" d="M443.3 146.1h-19.1v-15l-5.7 11.3c-5.4 4.3-10.6 6-17.7 6-15.2 0-24.3-10.3-26-22.4-.6-4.5-.7-9-.7-16.1V57.7h19.1v47.4c0 2.8.1 7.6.6 12.1 1 9.1 5.4 15 14.2 15 9.5 0 16.2-9.5 16.2-29.4v-45h19.1v88.3z"/><linearGradient id="g" gradientUnits="userSpaceOnUse" x1="281" y1="101.7" x2="1028" y2="101.7" gradientTransform="matrix(1 0 0 -1 0 194)"><stop offset="0" style="stop-color:#b87fd5"/><stop offset="1" style="stop-color:#8743f2"/></linearGradient><path style="fill:url(#g)" d="M478.1 114.4c0 3 0 5.5.1 7.8.6 8.6 3.2 10.6 13.8 9.6v15c-4.3.8-8.3 1.2-12.6 1.2-14.2 0-19.3-5.7-20.2-18.1-.3-4-.3-7.8-.3-12.8V73.5h-10.8V58.4H459V36.6h19.1v21.8h15.2v15.1h-15.2v40.9z"/><linearGradient id="h" gradientUnits="userSpaceOnUse" x1="281" y1="92.1" x2="1028" y2="92.1" gradientTransform="matrix(1 0 0 -1 0 194)"><stop offset="0" style="stop-color:#b87fd5"/><stop offset="1" style="stop-color:#8743f2"/></linearGradient><path style="fill:url(#h)" d="M569.6 101.9c0 26.8-13.7 46.5-38.1 46.5-24.4 0-38.1-19.8-38.1-46.5 0-26.9 13.7-46.5 38.1-46.5 24.5 0 38.1 19.6 38.1 46.5zm-19.7 0c0-19.1-6.9-30.4-18.4-30.4s-18.4 11.3-18.4 30.4c0 18.9 6.9 30.4 18.4 30.4s18.4-11.5 18.4-30.4z"/><linearGradient id="i" gradientUnits="userSpaceOnUse" x1="281" y1="93.15" x2="1028" y2="93.15" gradientTransform="matrix(1 0 0 -1 0 194)"><stop offset="0" style="stop-color:#b87fd5"/><stop offset="1" style="stop-color:#8743f2"/></linearGradient><path style="fill:url(#i)" d="M686.3 93.4v52.7h-19.1v-46c0-5.2-.1-10-.6-14.5-1-9.1-5.1-14.1-12.4-14.1-8.6 0-13.4 8.8-13.4 29.3v45.4H622v-46c0-5.2-.1-10-.6-14.5-1-9.1-5.2-14.1-12.6-14.1-8.6 0-13.3 8.8-13.3 29.3v45.4h-19.1V57.7h19.1v13.5l5.4-10.6c4.1-3.5 9-5.2 15.6-5.2 12 0 19.6 7.1 22.5 16.8l7.2-11.6c4.1-3.5 9.1-5.2 15.7-5.2 13.9 0 22 9.8 23.6 21.9.7 4.5.8 9 .8 16.1z"/><linearGradient id="j" gradientUnits="userSpaceOnUse" x1="281" y1="92.05" x2="1028" y2="92.05" gradientTransform="matrix(1 0 0 -1 0 194)"><stop offset="0" style="stop-color:#b87fd5"/><stop offset="1" style="stop-color:#8743f2"/></linearGradient><path style="fill:url(#j)" d="m738.8 133.1-3.6 9.5c-5.1 4.2-11.3 5.8-18.2 5.8-12.7 0-23.6-9-23.6-25.8 0-19.4 13.8-30.4 40.5-30.4h4.7v-1.8c0-2.7 0-5.3-.3-8.3-.6-6.1-3.9-10.6-11.3-10.6-7.6 0-11.7 5.3-12.3 15l-18.5.2c.6-19.9 13.9-31.2 31.5-31.2 20.6 0 28.3 10.8 29.4 26.1.3 4.2.4 8.8.4 13.6v28.6c0 6.6.3 12.6 1.4 22.4h-18.6l-1.5-13.1zm-.3-19.6v-7.1c-15.2-1.3-25.4 2.8-25.4 14.5 0 7.8 4.4 11.5 11.2 11.5 7.7-.1 14.2-6.6 14.2-18.9z"/><linearGradient id="k" gradientUnits="userSpaceOnUse" x1="281" y1="101.7" x2="1028" y2="101.7" gradientTransform="matrix(1 0 0 -1 0 194)"><stop offset="0" style="stop-color:#b87fd5"/><stop offset="1" style="stop-color:#8743f2"/></linearGradient><path style="fill:url(#k)" d="M792.4 114.4c0 3 0 5.5.1 7.8.6 8.6 3.2 10.6 13.8 9.6v15c-4.3.8-8.3 1.2-12.6 1.2-14.2 0-19.3-5.7-20.2-18.1-.3-4-.3-7.8-.3-12.8V73.5h-10.8V58.4h10.8V36.6h19.1v21.8h15.2v15.1h-15.2v40.9h.1z"/><linearGradient id="l" gradientUnits="userSpaceOnUse" x1="281" y1="92.1" x2="1028" y2="92.1" gradientTransform="matrix(1 0 0 -1 0 194)"><stop offset="0" style="stop-color:#b87fd5"/><stop offset="1" style="stop-color:#8743f2"/></linearGradient><path style="fill:url(#l)" d="M884 101.9c0 26.8-13.7 46.5-38.1 46.5-24.4 0-38.1-19.8-38.1-46.5 0-26.9 13.7-46.5 38.1-46.5 24.4 0 38.1 19.6 38.1 46.5zm-19.8 0c0-19.1-6.9-30.4-18.4-30.4s-18.4 11.3-18.4 30.4c0 18.9 6.9 30.4 18.4 30.4s18.4-11.5 18.4-30.4z"/><linearGradient id="m" gradientUnits="userSpaceOnUse" x1="281" y1="93.25" x2="1028" y2="93.25" gradientTransform="matrix(1 0 0 -1 0 194)"><stop offset="0" style="stop-color:#b87fd5"/><stop offset="1" style="stop-color:#8743f2"/></linearGradient><path style="fill:url(#m)" d="M959.9 96.2v49.9h-19.1V99.4c0-3.7 0-7.8-.3-12.3-.6-9.3-4.8-15.6-14.1-15.6s-16.6 9.6-16.6 34.2v40.4h-19.1V57.7h19.1V72l5.7-10.5c5.2-4.5 10.6-6.1 17.7-6.1 15.6 0 24.6 9.3 26.1 24.8.5 4.4.6 8.9.6 16z"/><linearGradient id="n" gradientUnits="userSpaceOnUse" x1="281" y1="92.1" x2="1028" y2="92.1" gradientTransform="matrix(1 0 0 -1 0 194)"><stop offset="0" style="stop-color:#b87fd5"/><stop offset="1" style="stop-color:#8743f2"/></linearGradient><path style="fill:url(#n)" d="M1026.5 83.3h-19.1c-1.2-8.1-5-12.8-11.3-12.8-5.7 0-8.7 4-8.7 9.5 0 6.6 4.6 10.1 16.7 13.8 15.1 4.7 23.9 12 23.9 28.3 0 17.8-13.4 26.4-30.2 26.4-17.8 0-30.4-9.3-32.5-29.3h19.1c1.5 9.6 7 14.1 13.7 14.1 6.1 0 10.8-3.2 10.8-9.6 0-6.8-4.8-10.6-17.5-14.5-13.7-4.2-23.1-11.3-23.1-26.6 0-17 11.6-27.3 29.1-27.3 17.5.1 27.4 11.9 29.1 28z"/></svg>