<svg xmlns="http://www.w3.org/2000/svg" xmlns:xlink="http://www.w3.org/1999/xlink">  
    <symbol height="16" width="26" viewBox="0 0 26 16" id="envelope">
        <title>Envelope</title>
        <g><polygon points="26,0 0,0 13,9 	"/><polygon points="26,14.4 26,1.6 16.7,8 	"/><polygon points="0,1.6 0,14.4 9.3,8 	"/><polygon points="13.7,10 13,10.5 12.3,10 10.5,8.8 0,16 26,16 15.5,8.8 	"/></g>
    </symbol>  

    <symbol height="43" width="56" viewBox="0 0 56 43" id="discord">
        <title>Discord Icon</title>
		<path d="M47.4,3.6C43.8,1.9,39.9,0.7,35.9,0c-0.5,1-1,2-1.5,3c-4.2-0.6-8.6-0.6-12.8,0c-0.4-1-0.9-2-1.5-3c-4,0.7-7.9,1.9-11.6,3.6
		C1.2,14.4-0.8,24.9,0.2,35.3l0,0c4.3,3.2,9.1,5.6,14.2,7.1c1.1-1.5,2.2-3.2,3-4.9c-1.7-0.6-3.3-1.4-4.8-2.3c0.4-0.3,0.8-0.6,1.2-0.9
		c9,4.2,19.4,4.2,28.3,0c0.4,0.3,0.8,0.6,1.2,0.9c-1.5,0.9-3.1,1.7-4.8,2.3c0.9,1.7,1.9,3.3,3,4.9c5.1-1.5,9.9-3.9,14.2-7.1l0,0
		C56.9,23.3,53.8,12.8,47.4,3.6z M18.7,28.9c-2.8,0-5-2.5-5-5.6s2.2-5.6,5-5.6s5.1,2.5,5,5.6S21.5,28.9,18.7,28.9z M37.3,28.9
		c-2.8,0-5-2.5-5-5.6s2.2-5.6,5-5.6c2.8,0,5.1,2.5,5,5.6C42.3,26.4,40.1,28.9,37.3,28.9z"/>
    </symbol>

    <symbol height="40" width="56" viewBox="0 0 56 40" id="facebook">
        <title>Facebook Icon</title>
        <path d="M28,0C17,0,8,9,8,20c0,9.4,6.5,17.2,15.2,19.4V26.1H19h0V20h0h4.1v-2.6c0-6.8,3.1-10,9.8-10c0,0,0,0,0,0s0,0,0,0
	    c0.3,0,0.6,0,0.9,0c0.1,0,0.1,0,0.2,0c0,0,0,0,0,0c1,0.1,2.1,0.2,2.9,0.4c0.1,0,0.3,0.1,0.4,0.1v5.5c0,0,0,0,0,0v0
	    c-0.5,0-1.3-0.1-2.3-0.1c-3.3,0-4.5,1.2-4.5,4.5V20H37h0l-1.1,6.1h0h-5.4v13.7C40.3,38.7,48,30.2,48,20C48,9,39,0,28,0z"/>
    </symbol>

    <symbol height="40" width="56" viewBox="0 0 56 40" id="instagram">
        <title>Instagram Icon</title>
	    <path d="M37,0H19C13,0,8,5,8,11V29c0,6.1,5,11,11,11H37c6.1,0,11-5,11-11V11C48,5,43,0,37,0z M44.5,29c0,4.1-3.4,7.5-7.5,7.5H19
		c-4.1,0-7.5-3.4-7.5-7.5V11c0-4.1,3.4-7.5,7.5-7.5H37c4.1,0,7.5,3.4,7.5,7.5L44.5,29L44.5,29z"/>
	    <path d="M28,9.7c-5.7,0-10.3,4.6-10.3,10.3c0,5.7,4.6,10.3,10.3,10.3S38.3,25.7,38.3,20C38.3,14.3,33.7,9.7,28,9.7z M28,26.8
		c-3.7,0-6.8-3-6.8-6.8c0-3.7,3-6.8,6.8-6.8s6.8,3,6.8,6.8C34.8,23.7,31.7,26.8,28,26.8z"/>
	    <path d="M38.7,6.7c-0.7,0-1.4,0.3-1.8,0.8c-0.5,0.5-0.8,1.2-0.8,1.8c0,0.7,0.3,1.4,0.8,1.8c0.5,0.5,1.2,0.8,1.8,0.8
		c0.7,0,1.4-0.3,1.8-0.8c0.5-0.5,0.8-1.2,0.8-1.8c0-0.7-0.3-1.4-0.8-1.8C40.1,7,39.4,6.7,38.7,6.7z"/>
    </symbol>

    <symbol height="40" width="56" viewBox="0 0 56 40" id="X">
        <title>X Icon</title>
        <path d="M41-0.1h6.9L32.8,16.8l17.7,23.1H36.6l-10.9-14l-12.4,14H6.4l16.1-18.1L5.5-0.1h14.2l9.8,12.8L41-0.1z M38.5,35.8h3.8L17.7,3.8h-4.1L38.5,35.8z"/>
    </symbol> 

    <symbol height="40" width="56" viewBox="0 0 56 40" id="medium">
        <title>Medium Icon</title>
        <ellipse cx="15" cy="20" rx="13" ry="14"/>
        <ellipse cx="36.5" cy="20" rx="7" ry="13.1"/>
        <ellipse cx="47.4" cy="20" rx="2.6" ry="12.2"/>
    </symbol>  

    <symbol height="40" width="56" viewBox="0 0 56 40" id="telegram-announcements">
        <title>Telegram Announcements Icon</title>
        <path d="M28,0C17,0,8,9,8,20s9,20,20,20s20-9,20-20S39,0,28,0z M36.4,31.6c0,0-0.3,1-1.2,1c-0.5,0-0.9-0.1-1.3-0.5c-1.9-1.6-8.4-6-9.8-7C24,25.1,24,25,24,24.9s0.1-0.3,0.1-0.3s11.3-10.1,11.6-11.1c0-0.1,0-0.1-0.1-0.1c-0.9,0.6-14,8.9-15.4,9.8c-0.1,0-0.3,0-0.3,0l-6.3-2.1c0,0-0.8-0.3-0.5-1c0-0.1,0.1-0.3,0.4-0.5c1.4-1,25.9-9.8,25.9-9.8s0.6-0.3,1-0.1c0.3,0,0.4,0.3,0.4,0.4s0,0.4,0,0.5c0.3,0.4,0.3,0.6,0.3,0.8C41,13.7,36.4,31.6,36.4,31.6z"/>
    </symbol> 

    <symbol height="40" width="56" viewBox="0 0 56 40" id="telegram-community">
        <title>Telegram Community Icon</title>
        <path d="M49.8,2.7c-0.1-0.4-0.3-0.6-0.6-0.7c-0.6-0.3-1.7,0-1.7,0S9,15.9,6.8,17.4c-0.5,0.4-0.6,0.5-0.7,0.7c-0.4,1.1,0.8,1.5,0.8,1.5l10,3.3c0.2,0,0.4,0,0.5,0C19.6,21.5,40,8.6,41.1,8.1c0.2-0.1,0.4,0,0.3,0.1C40.9,10,23.2,25.8,23.2,25.8s-0.1,0.1-0.1,0.2l0,0l-0.9,9.9c0,0-0.4,3,2.6,0c2.1-2.1,4.2-3.9,5.3-4.8c3.4,2.4,7.1,5,8.7,6.3c0.5,0.5,1.3,0.8,2,0.8c1.5-0.1,1.9-1.7,1.9-1.7s7-28.3,7.2-32c0-0.4,0.1-0.6,0.1-0.9C49.9,3.2,49.9,2.9,49.8,2.7z"/>
    </symbol> 

    <symbol height="58" width="215" viewBox="0 0 215 58" id="coingecko">
        <title>CoinGecko</title>
		<path d="M28.7,0C12.8,0.1-0.1,13.1,0,29.1c0.1,16,13,28.9,28.9,28.9c15.9-0.1,28.7-13.1,28.7-29.1
			C57.5,12.9,44.6-0.1,28.7,0z M25,27.6c-2.8,0-5.1-2.3-5.1-5.2s2.3-5.2,5.1-5.2s5.1,2.3,5.1,5.2C30.2,25.3,27.9,27.6,25,27.6z
			 M29.1,33.2L29.1,33.2L29.1,33.2c1.5,0.9,3.2,1.2,4.9,1.3c1.7,0,3.4-0.1,5.1-0.4c1.7-0.4,3.3-0.9,4.9-1.5c0.9-0.4,1.8-0.8,2.6-1.3
			c0,0,0,0,0,0c0.5-0.3,1-0.7,1.5-1c0.1-0.1,0.2-0.2,0.3-0.2l0,0l0,0.1c-1.3,1.2-2.8,2.1-4.4,2.8c-1.6,0.8-3.2,1.4-4.9,1.8
			c-1.7,0.4-3.5,0.8-5.3,0.6C32.2,35.2,30.3,34.5,29.1,33.2L29.1,33.2z M42.3,27.6c0-0.6,0.5-1.1,1.1-1.1c0.6,0,1.1,0.5,1.1,1.1
			c0,0.6-0.5,1.1-1.1,1.1C42.8,28.7,42.3,28.2,42.3,27.6z M33.5,55.4c-1.1-7.8,5.7-15.5,9.5-19.5c0.9-0.9,2.2-2.1,3.5-3.4
			c5-4.7,6-10.3-4.2-13.1c-1.9-0.6-3.9-1.4-6-2.2c-0.1-0.2-0.1-0.4-0.2-0.5c-0.2-0.4-0.6-0.9-1.3-1.4c-1.3-1.2-3.8-1.1-6-0.6
			c-2.4-0.6-4.7-0.8-7-0.2c-9.9,2.7-11.4,7.6-11.8,13.4c-0.5,6.3-0.8,11-3.2,16.4c-3-4.3-4.7-9.5-4.7-15.1C2.1,14.3,14,2.3,28.7,2.2
			c14.7-0.1,26.7,11.9,26.7,26.7C55.5,42.1,46,53.1,33.5,55.4L33.5,55.4z"/>
		<path d="M28.6,22.4c0,2-1.6,3.6-3.6,3.6c-2,0-3.6-1.6-3.6-3.6s1.6-3.6,3.6-3.6C27,18.8,28.6,20.4,28.6,22.4z"/>
		<path d="M87.2,25.3c-0.6-2.3-2.1-4-5-4c-4.3,0-6.1,3.8-6.1,7.7s1.8,7.7,6.1,7.7c3.1,0,4.8-2.4,5.1-5.3h3.4
			c-0.3,4.8-3.7,8.2-8.6,8.2c-6,0-9.6-4.8-9.6-10.6s3.6-10.6,9.6-10.6c4.5,0,8.1,2.6,8.5,6.9H87.2z"/>
		<path d="M92.8,31.8c0-4.5,2.7-7.7,7.4-7.7c4.7,0,7.4,3.2,7.4,7.7c0,4.5-2.7,7.7-7.4,7.7
			C95.5,39.5,92.8,36.3,92.8,31.8z M104.3,31.8c0-2.5-1.3-5.2-4.1-5.2c-2.9,0-4.1,2.6-4.1,5.2c0,2.5,1.3,5.2,4.1,5.2
			C103.1,37,104.3,34.3,104.3,31.8z"/>
		<path d="M110.3,18.9h3.2v3.1h-3.2V18.9z M110.3,24.5h3.2v14.7h-3.2V24.5z"/>
		<path d="M117,24.5h3v2.2l0.1,0.1c1-1.6,2.6-2.6,4.5-2.6c3.2,0,5.2,1.7,5.2,5v10.1h-3.2v-9.2c-0.1-2.3-1-3.3-2.8-3.3
			c-2.1,0-3.5,1.7-3.5,3.9v8.7H117V24.5L117,24.5z"/>
		<path d="M151.2,39.1h-2.3l-0.5-2.4c-1.9,2.2-3.6,2.9-6.1,2.9c-6,0-9.6-4.8-9.6-10.6s3.6-10.6,9.6-10.6
			c4.4,0,8.1,2.4,8.6,6.9h-3.4c-0.3-2.7-2.6-4-5.2-4c-4.3,0-6.1,3.8-6.1,7.7c0,3.9,1.8,7.7,6.1,7.7c3.6,0.1,5.6-2.1,5.6-5.6h-5.4
			v-2.7h8.6L151.2,39.1L151.2,39.1z"/>
		<path d="M157,32.6c0,2.3,1.2,4.3,3.9,4.3c1.9,0,3-0.8,3.5-2.4h3c-0.7,3.2-3.4,5-6.6,5c-4.6,0-7.1-3.2-7.1-7.7
			c0-4.2,2.7-7.7,7-7.7c4.6,0,7.4,4.2,6.9,8.6H157L157,32.6z M164.5,30.5c-0.1-2-1.5-3.9-3.7-3.9c-2.2,0-3.7,1.7-3.8,3.9H164.5z"/>
		<path d="M180,29.4c-0.3-1.8-1.5-2.8-3.3-2.8c-1.7,0-4,0.9-4,5.3c0,2.4,1.1,5,3.9,5c1.9,0,3.2-1.2,3.5-3.3h3.2
			c-0.6,3.8-2.9,5.9-6.7,5.9c-4.6,0-7.1-3.3-7.1-7.6s2.4-7.9,7.2-7.9c3.4,0,6.3,1.7,6.6,5.3L180,29.4L180,29.4z"/>
		<path d="M185.9,18.9h3.2v11.5l5.8-5.9h3.9l-5.6,5.4l6.1,9.3h-3.9l-4.4-7.1l-1.9,1.9v5.2h-3.2V18.9z"/>
		<path d="M200.3,31.8c0-4.5,2.7-7.7,7.4-7.7c4.7,0,7.4,3.2,7.4,7.7c0,4.5-2.7,7.7-7.4,7.7
			C203,39.5,200.3,36.3,200.3,31.8z M211.8,31.8c0-2.5-1.3-5.2-4.1-5.2c-2.9,0-4.1,2.6-4.1,5.2c0,2.5,1.3,5.2,4.1,5.2
			C210.5,37,211.8,34.3,211.8,31.8z"/>
    </symbol> 

	<symbol height="160" width="160" viewBox="0 0 160 160" id="bigPlay">
		<path d="M54.1,39.5c-4.9-2.5-8.9,0-8.9,5.5v25c0,5.5,0,14.5,0,20v25c0,5.5,4,8,8.9,5.5l67.1-36.1c4.9-2.5,4.9-6.5,0-8.9L54.1,39.5z"/>
	</symbol>

	<symbol height="100" width="100" viewBox="0 0 100 100" id="litlPlay">
		<path d="M28.1,17.5c-3.9-2-7.1,0-7.1,4.4V42c0,4.4,0,11.6,0,16.1v20.1c0,4.4,3.2,6.4,7.1,4.4l53.9-29c3.9-2,3.9-5.2,0-7.1L28.1,17.5z"/>
	</symbol>

</svg>